<?xml version="1.0" encoding="utf-8"?>
<!-- Generator: Adobe Illustrator 14.0.0, SVG Export Plug-In . SVG Version: 6.00 Build 43363)  -->
<!DOCTYPE svg PUBLIC "-//W3C//DTD SVG 1.1//EN" "http://www.w3.org/Graphics/SVG/1.1/DTD/svg11.dtd">
<svg version="1.1" id="Calque_1" xmlns="http://www.w3.org/2000/svg" xmlns:xlink="http://www.w3.org/1999/xlink" x="0px" y="0px"
	 width="125px" height="80px" viewBox="0 0 125 80" enable-background="new 0 0 125 80" xml:space="preserve">
<g>
	<path fill="#B3B3B3" d="M46.327,54.132v13.961L3.25,46.582V34.641l43.077-21.513V27.19L16.31,40.512L46.327,54.132z"/>
	<path fill="#B3B3B3" d="M72.96,12.833L60.97,69.724c-0.4,1.872-0.749,3.354-1.049,4.438c-0.3,1.089-0.757,1.936-1.371,2.543
		c-0.614,0.608-1.506,0.913-2.676,0.913c-2.911,0-4.367-1.446-4.367-4.342c0-0.756,0.286-2.647,0.856-5.673L64.31,10.711
		c0.629-3.026,1.228-5.099,1.799-6.217c0.571-1.118,1.685-1.678,3.341-1.678c1.427,0,2.52,0.395,3.276,1.184
		c0.756,0.79,1.134,1.875,1.134,3.257C73.859,8.277,73.56,10.135,72.96,12.833z"/>
	<path fill="#B3B3B3" d="M122.074,46.582L78.996,68.193V54.229L109.1,40.611L78.996,27.19V13.326l43.078,21.415V46.582z"/>
</g>
</svg>
