<?xml version="1.0" standalone="no"?>
<!DOCTYPE svg PUBLIC "-//W3C//DTD SVG 20010904//EN"
 "http://www.w3.org/TR/2001/REC-SVG-20010904/DTD/svg10.dtd">
<svg version="1.0" xmlns="http://www.w3.org/2000/svg"
 width="155.000000pt" height="73.000000pt" viewBox="0 0 155.000000 73.000000"
 preserveAspectRatio="xMidYMid meet">

<g transform="translate(0.000000,73.000000) scale(0.100000,-0.100000)"
fill="#000000" stroke="none">
<path d="M860 667 c-43 -22 -45 -35 -33 -215 11 -176 20 -212 53 -212 29 0 38
27 50 146 14 150 13 259 -2 271 -24 18 -45 21 -68 10z"/>
<path d="M641 638 c-10 -33 -86 -342 -116 -475 -20 -89 -17 -127 10 -131 44
-5 42 -12 135 372 28 114 50 220 48 235 -2 21 -9 27 -35 29 -28 3 -32 -1 -42
-30z"/>
<path d="M415 570 c-11 -5 -103 -45 -205 -89 l-185 -80 0 -51 0 -52 100 -42
c55 -24 148 -64 207 -90 59 -25 110 -46 113 -46 3 0 5 25 5 55 0 64 12 55
-172 125 -59 23 -110 45 -112 49 -2 3 41 24 97 45 56 22 121 47 145 57 l42 18
0 55 c0 58 -2 60 -35 46z"/>
<path d="M1070 523 l0 -59 48 -17 c132 -49 242 -93 242 -97 0 -3 -64 -30 -142
-60 l-143 -56 -3 -58 c-3 -53 -1 -58 15 -53 10 3 104 43 210 89 l191 83 4 48
c1 27 1 52 -2 56 -4 5 -336 150 -407 178 -10 4 -13 -11 -13 -54z"/>
<path d="M852 148 c-44 -22 -43 -85 3 -107 25 -12 32 -12 54 0 35 19 40 70 12
98 -23 23 -35 25 -69 9z"/>
</g>
</svg>
