<?xml version="1.0" standalone="no"?>
<!DOCTYPE svg PUBLIC "-//W3C//DTD SVG 20010904//EN"
 "http://www.w3.org/TR/2001/REC-SVG-20010904/DTD/svg10.dtd">
<svg version="1.0" xmlns="http://www.w3.org/2000/svg"
 width="165.000000pt" height="98.000000pt" viewBox="0 0 165.000000 98.000000"
 preserveAspectRatio="xMidYMid meet">
<metadata>
Created by potrace 1.15, written by Peter Selinger 2001-2017
</metadata>
<g transform="translate(0.000000,98.000000) scale(0.100000,-0.100000)"
fill="#000000" stroke="none">
<path d="M150 185 c0 -24 -2 -25 -35 -19 -25 4 -43 1 -61 -11 -56 -37 -1 -110
66 -86 19 6 32 6 35 0 15 -23 25 7 25 72 0 55 -3 69 -15 69 -9 0 -15 -9 -15
-25z"/>
<path d="M1110 150 c-31 -31 -25 -56 18 -79 17 -9 31 -10 53 -2 26 9 30 8 27
-7 -4 -20 -62 -29 -83 -12 -9 7 -15 7 -19 1 -9 -14 27 -31 66 -31 53 0 70 19
76 82 4 57 -7 79 -31 59 -8 -6 -18 -6 -27 -1 -25 16 -59 11 -80 -10z"/>
</g>
</svg>
