<?xml version="1.0" encoding="utf-8"?>
<!-- Generator: Adobe Illustrator 14.0.0, SVG Export Plug-In . SVG Version: 6.00 Build 43363)  -->
<!DOCTYPE svg PUBLIC "-//W3C//DTD SVG 1.1//EN" "http://www.w3.org/Graphics/SVG/1.1/DTD/svg11.dtd">
<svg version="1.1" id="Calque_1" xmlns="http://www.w3.org/2000/svg" xmlns:xlink="http://www.w3.org/1999/xlink" x="0px" y="0px"
	 width="125px" height="100px" viewBox="0 0 125 100" enable-background="new 0 0 125 100" xml:space="preserve">
<g>
	<path fill="#B3B3B3" d="M45.253,49.887v13.3L2.176,42.694V31.318l43.077-20.494v13.396L15.236,36.911L45.253,49.887z"/>
	<path fill="#B3B3B3" d="M71.886,10.543L59.896,64.74c-0.4,1.782-0.75,3.194-1.05,4.228c-0.3,1.038-0.757,1.844-1.371,2.422
		c-0.614,0.579-1.506,0.871-2.676,0.871c-2.911,0-4.367-1.379-4.367-4.138c0-0.721,0.286-2.521,0.856-5.403L63.236,8.521
		c0.629-2.882,1.228-4.857,1.799-5.922C65.605,1.534,66.72,1,68.376,1c1.427,0,2.521,0.376,3.276,1.128
		c0.756,0.753,1.133,1.786,1.133,3.103C72.785,6.202,72.486,7.973,71.886,10.543z"/>
	<path fill="#B3B3B3" d="M121,42.694L77.922,63.281V49.979l30.104-12.973L77.922,24.219V11.013L121,31.414V42.694z"/>
</g>
<g>
	<path fill="#E6E6E6" d="M9.695,81.278v-3.693c0-0.218,0.079-0.402,0.236-0.554c0.158-0.152,0.348-0.229,0.571-0.229
		c0.229,0,0.428,0.076,0.596,0.229c0.167,0.151,0.251,0.336,0.251,0.554v10.801c0,0.217-0.082,0.401-0.246,0.554
		c-0.164,0.151-0.358,0.228-0.581,0.228c-0.236,0-0.433-0.076-0.591-0.228c-0.157-0.152-0.236-0.337-0.236-0.554v-0.345
		c-0.807,0.751-1.563,1.126-2.265,1.126H6.022c-0.564,0-1.129-0.229-1.693-0.688L3.639,87.93c-0.157-0.143-0.307-0.382-0.448-0.717
		s-0.212-0.647-0.212-0.939v-3.182c0-0.354,0.079-0.696,0.236-1.027c0.158-0.332,0.341-0.582,0.552-0.749l0.679-0.549
		c0.486-0.397,1.057-0.596,1.713-0.596h1.191c0.65,0,1.241,0.217,1.772,0.651L9.695,81.278z M7.292,81.752H6.14
		c-0.243,0-0.462,0.084-0.66,0.252L4.949,82.44c-0.184,0.155-0.275,0.354-0.275,0.596v3.312c0,0.218,0.108,0.413,0.325,0.587
		l0.542,0.437c0.171,0.144,0.351,0.214,0.542,0.214H7.43c0.177,0,0.387-0.096,0.63-0.288l1.31-1.023
		c0.216-0.18,0.325-0.403,0.325-0.67v-1.692c0-0.379-0.115-0.658-0.345-0.838l-1.349-1.088C7.824,81.83,7.588,81.752,7.292,81.752z"
		/>
	<path fill="#E6E6E6" d="M23.549,83.129v1.889c0,0.211-0.082,0.395-0.246,0.549c-0.164,0.155-0.358,0.232-0.581,0.232h-5.849v0.456
		c0,0.267,0.122,0.493,0.364,0.68l0.482,0.381c0.263,0.192,0.512,0.289,0.749,0.289h4.253c0.223,0,0.417,0.075,0.581,0.228
		s0.246,0.337,0.246,0.554c0,0.211-0.083,0.394-0.251,0.549s-0.359,0.232-0.576,0.232H18.36c-0.289,0-0.592-0.058-0.911-0.172
		c-0.318-0.115-0.553-0.234-0.704-0.358l-0.738-0.614c-0.23-0.173-0.422-0.415-0.576-0.726c-0.154-0.31-0.231-0.596-0.231-0.855
		v-3.582c0-0.205,0.083-0.48,0.251-0.828c0.167-0.347,0.379-0.617,0.635-0.81l0.689-0.512c0.453-0.347,0.955-0.521,1.507-0.521
		h2.324c0.584,0,1.135,0.229,1.654,0.688l0.62,0.558C23.326,81.814,23.549,82.379,23.549,83.129z M16.893,83.008v1.21h5.022v-1.089
		c0-0.291-0.095-0.515-0.286-0.67l-0.482-0.399c-0.25-0.192-0.473-0.289-0.669-0.289h-2.078c-0.256,0-0.489,0.084-0.699,0.252
		l-0.482,0.381C17.001,82.559,16.893,82.761,16.893,83.008z"/>
	<path fill="#E6E6E6" d="M35.739,80.971v1.488l-2.87,6.161c-0.184,0.364-0.427,0.547-0.729,0.547h-1.063
		c-0.388,0-0.67-0.189-0.847-0.569l-2.851-6.12v-1.507c0-0.217,0.08-0.401,0.241-0.554c0.161-0.151,0.356-0.228,0.586-0.228
		c0.229,0,0.425,0.076,0.586,0.228c0.161,0.151,0.241,0.336,0.241,0.553l0.006,1.198l2.519,5.361l2.505-5.377l0-1.182
		c0-0.217,0.082-0.401,0.246-0.554c0.164-0.151,0.365-0.228,0.601-0.228c0.229,0,0.425,0.076,0.585,0.228
		C35.659,80.569,35.739,80.754,35.739,80.971z"/>
	<path fill="#E6E6E6" d="M40.386,76.803h6.695c0.217,0,0.409,0.078,0.576,0.232c0.167,0.155,0.251,0.339,0.251,0.55
		c0,0.217-0.082,0.404-0.246,0.563s-0.358,0.237-0.581,0.237h-2.501v9.22h2.501c0.23,0,0.425,0.075,0.586,0.228
		c0.161,0.152,0.241,0.337,0.241,0.554s-0.082,0.401-0.246,0.554c-0.164,0.151-0.358,0.228-0.581,0.228h-6.695
		c-0.23,0-0.425-0.076-0.586-0.228c-0.161-0.152-0.241-0.337-0.241-0.554s0.08-0.401,0.241-0.554
		c0.161-0.152,0.356-0.228,0.586-0.228h2.541v-9.22h-2.541c-0.23,0-0.425-0.078-0.586-0.232c-0.161-0.155-0.241-0.338-0.241-0.549
		c0-0.224,0.08-0.413,0.241-0.568C39.961,76.881,40.156,76.803,40.386,76.803z"/>
	<path fill="#E6E6E6" d="M55.672,82.004l-2.259,1.386v4.996c0,0.211-0.082,0.394-0.246,0.549s-0.358,0.232-0.581,0.232
		s-0.417-0.077-0.581-0.232s-0.246-0.338-0.246-0.549v-7.415c0-0.217,0.081-0.404,0.241-0.563c0.161-0.158,0.356-0.237,0.586-0.237
		c0.223,0,0.417,0.079,0.581,0.237s0.246,0.346,0.246,0.563v0.521l1.51-0.865c0.506-0.304,1.078-0.456,1.715-0.456h0.769
		c0.657,0,1.226,0.22,1.706,0.66c0.479,0.44,0.733,0.983,0.759,1.628l0.227,5.927c0.006,0.211-0.073,0.394-0.236,0.549
		c-0.165,0.155-0.361,0.232-0.591,0.232c-0.217,0-0.407-0.069-0.571-0.209s-0.25-0.331-0.256-0.572l-0.246-5.833
		c-0.02-0.546-0.323-0.819-0.908-0.819h-0.81C56.231,81.733,55.962,81.823,55.672,82.004z"/>
	<path fill="#E6E6E6" d="M66.253,80.189h3.791c0.591,0,1.112,0.166,1.565,0.498c0.453,0.331,0.68,0.655,0.68,0.972
		c0,0.224-0.084,0.406-0.251,0.549c-0.168,0.143-0.354,0.214-0.557,0.214c-0.263,0-0.502-0.111-0.719-0.335
		c-0.217-0.223-0.443-0.335-0.68-0.335h-3.741c-0.368,0-0.552,0.145-0.552,0.434c0,0.203,0.123,0.356,0.368,0.461l4.397,1.851
		c0.446,0.186,0.813,0.485,1.098,0.897c0.286,0.412,0.429,0.87,0.429,1.372c0,0.67-0.251,1.237-0.753,1.703
		c-0.502,0.465-1.072,0.697-1.709,0.697h-3.348c-0.577,0-1.114-0.164-1.609-0.493c-0.496-0.328-0.744-0.647-0.744-0.958
		c0-0.205,0.081-0.386,0.241-0.544c0.161-0.158,0.37-0.237,0.626-0.237c0.21,0,0.435,0.111,0.674,0.335
		c0.24,0.223,0.586,0.335,1.039,0.335h3.082c0.243,0,0.446-0.089,0.61-0.266s0.246-0.38,0.246-0.609
		c0-0.354-0.184-0.607-0.551-0.763l-4.441-1.889c-0.427-0.18-0.755-0.44-0.984-0.781s-0.345-0.688-0.345-1.042
		c0-0.559,0.205-1.042,0.615-1.451S65.649,80.189,66.253,80.189z"/>
	<path fill="#E6E6E6" d="M82.795,89.148h-5.041c-0.229,0-0.425-0.076-0.586-0.228c-0.161-0.152-0.241-0.337-0.241-0.554
		c0-0.211,0.08-0.395,0.241-0.549c0.161-0.155,0.356-0.233,0.586-0.233h1.693v-5.833h-1.674c-0.229,0-0.425-0.077-0.586-0.232
		c-0.161-0.154-0.241-0.338-0.241-0.549c0-0.217,0.08-0.404,0.241-0.563s0.356-0.237,0.586-0.237h2.521
		c0.229,0,0.425,0.079,0.586,0.237s0.241,0.346,0.241,0.563v6.614h1.654c0.229,0,0.429,0.076,0.596,0.229
		c0.168,0.152,0.251,0.336,0.251,0.554c0,0.217-0.082,0.401-0.246,0.554C83.212,89.072,83.019,89.148,82.795,89.148z M79.428,76.114
		h0.866c0.229,0,0.425,0.076,0.586,0.229c0.161,0.151,0.241,0.336,0.241,0.554v0.669c0,0.218-0.08,0.405-0.241,0.563
		s-0.356,0.237-0.586,0.237h-0.886c-0.236,0-0.436-0.081-0.596-0.242c-0.161-0.161-0.238-0.341-0.231-0.539l0.02-0.688
		c0-0.218,0.08-0.402,0.241-0.554C79.003,76.19,79.198,76.114,79.428,76.114z"/>
	<path fill="#E6E6E6" d="M93.498,92.517h-3.584c-0.23,0-0.426-0.075-0.586-0.224c-0.161-0.149-0.241-0.335-0.241-0.559
		c0-0.217,0.08-0.399,0.241-0.549c0.16-0.148,0.355-0.223,0.586-0.223h3.584c0.217,0,0.42-0.078,0.61-0.233l0.562-0.455
		c0.19-0.137,0.285-0.316,0.285-0.54v-2.382c-0.774,0.738-1.529,1.107-2.265,1.107H91.42c-0.656,0-1.247-0.214-1.772-0.642
		l-0.62-0.521c-0.203-0.161-0.379-0.396-0.526-0.707c-0.147-0.31-0.222-0.614-0.222-0.911v-2.587c0-0.365,0.074-0.713,0.222-1.042
		c0.147-0.328,0.323-0.573,0.526-0.734l0.68-0.549c0.485-0.397,1.057-0.596,1.713-0.596h1.191c0.65,0,1.241,0.217,1.772,0.651
		l0.571,0.456l-0.02-0.308c0-0.211,0.082-0.394,0.246-0.549s0.357-0.232,0.581-0.232c0.229,0,0.428,0.076,0.596,0.228
		c0.167,0.152,0.251,0.337,0.251,0.554v8.764c0,0.664-0.282,1.231-0.847,1.702l-0.67,0.55c-0.171,0.143-0.412,0.267-0.724,0.372
		S93.767,92.517,93.498,92.517z M92.553,81.733H91.44c-0.243,0-0.477,0.09-0.699,0.271l-0.513,0.399
		c-0.196,0.155-0.295,0.366-0.295,0.633v2.604c0,0.211,0.108,0.41,0.325,0.596l0.541,0.456c0.171,0.137,0.352,0.205,0.542,0.205
		h1.349c0.197,0,0.414-0.094,0.65-0.279l1.31-1.052c0.203-0.167,0.305-0.372,0.305-0.614v-1.181c0-0.285-0.115-0.519-0.345-0.698
		l-1.349-1.088C93.071,81.817,92.835,81.733,92.553,81.733z"/>
	<path fill="#E6E6E6" d="M100.46,88.386V77.585c0-0.211,0.08-0.392,0.241-0.54s0.356-0.224,0.586-0.224s0.425,0.076,0.586,0.229
		c0.16,0.151,0.241,0.336,0.241,0.554v3.944l1.329-0.819c0.604-0.359,1.143-0.539,1.615-0.539h1.023
		c0.676,0,1.257,0.228,1.743,0.684c0.485,0.456,0.738,1.01,0.758,1.661l0.207,5.852c0.007,0.217-0.072,0.401-0.236,0.554
		c-0.164,0.151-0.361,0.228-0.591,0.228s-0.424-0.079-0.581-0.237s-0.239-0.34-0.246-0.544l-0.207-5.87
		c-0.006-0.211-0.092-0.395-0.256-0.55c-0.164-0.154-0.361-0.232-0.591-0.232h-0.926c-0.21,0-0.439,0.078-0.688,0.232l-2.354,1.452
		v4.968c0,0.217-0.081,0.401-0.241,0.554c-0.161,0.151-0.356,0.228-0.586,0.228s-0.425-0.076-0.586-0.228
		C100.54,88.787,100.46,88.603,100.46,88.386z"/>
	<path fill="#E6E6E6" d="M118.469,89.167h-1.654c-0.683,0-1.271-0.229-1.763-0.688s-0.738-1.011-0.738-1.656v-5.07h-0.847
		c-0.229,0-0.425-0.074-0.586-0.223c-0.161-0.149-0.241-0.335-0.241-0.559c0-0.217,0.08-0.401,0.241-0.554
		c0.161-0.151,0.356-0.228,0.586-0.228h0.866v-1.917c0-0.217,0.08-0.401,0.241-0.553c0.161-0.152,0.356-0.229,0.586-0.229
		c0.217,0,0.409,0.078,0.576,0.232c0.167,0.155,0.251,0.339,0.251,0.549v1.917h3.328c0.224,0,0.417,0.077,0.581,0.232
		s0.246,0.338,0.246,0.549c0,0.218-0.082,0.401-0.246,0.554s-0.357,0.228-0.581,0.228h-3.348v5.07c0,0.211,0.084,0.395,0.251,0.549
		c0.167,0.155,0.366,0.233,0.596,0.233h1.615c0.439,0,0.731-0.226,0.876-0.675c0.145-0.45,0.424-0.675,0.837-0.675
		c0.243,0,0.441,0.076,0.596,0.229c0.154,0.151,0.231,0.343,0.231,0.571c0,0.472-0.234,0.941-0.704,1.41
		C119.796,88.933,119.197,89.167,118.469,89.167z"/>
</g>
</svg>
